<!DOCTYPE svg PUBLIC "-//W3C//DTD SVG 1.1//EN" "http://www.w3.org/Graphics/SVG/1.1/DTD/svg11.dtd">
<!-- Uploaded to: SVG Repo, www.svgrepo.com, Transformed by: SVG Repo Mixer Tools -->
<svg fill="#5FD068" version="1.1" id="Capa_1" xmlns="http://www.w3.org/2000/svg" xmlns:xlink="http://www.w3.org/1999/xlink" width="800px" height="800px" viewBox="0 0 198.422 198.422" xml:space="preserve">
<g id="SVGRepo_bgCarrier" stroke-width="0"/>
<g id="SVGRepo_tracerCarrier" stroke-linecap="round" stroke-linejoin="round"/>
<g id="SVGRepo_iconCarrier"> <g> <path d="M156.502,194.609c-6.839-3.264-8.434-8.33-8.879-11.874c-0.821-6.357,1.279-16.903,0.293-24.211 c-0.986-7.477-4.5-10.132-5.651-13.006c-1.218-2.99-1.339-9.584-0.979-12.763c0.237-2.217,0.895-5.979,0.992-6.942 c1.182-9.876-1.151-16.744-1.224-17.055c-1.358-5.231-6.339-17.011-6.339-17.011c-0.853-1.647-2.898-9.697-0.907-15.146 c2.532-6.92,13.42-17.242,14.528-20.359c0,0,3.8-14.525-2.85-16.56c0,0-13.98-7.465-15.473-12.488l0.268-2.652 c0,0,0.676-1.428,0.676-3.589c0,0,2.99-1.915,2.454-5.788c0,0,0.615-3.322-1.839-1.69c0,0,2.655-12.9-8.756-13.475 c0,0-11.095,0.088-11.095,8.756c0,0.305,0.402,5.2,0.402,5.2s-1.942-0.922-1.724,0.506c0,0-0.201,5.809,2.234,6.314 c0,0,0.615,4.883,2.448,5.906l0.116,4.78l-4.689,2.752c0,0-10.598-6.013-19.046,2.448c0,0-13.436-0.198-16.709,5.194 c0,0-7.222-6.719-20.965-5.696c0,0-4.688-1.729-5.91-3.261c0,0-0.706-4.996-7.222-3.355c0,0-5.2,1.933-2.031,9.371 c0,0,2.232,3.148,6.616,1.017c0,0,2.238,0.305,4.786,2.536c0,0,11.208,11,24.957,10.083c0,0,4.381-0.718,9.475,1.428 c0,0,9.066,2.956,13.433-2.232c0,0,0,5.696,3.772,11.603l-9.478,0.106c0,0-4.576-4.884-6.111-1.934c0,0-7.222,2.85-4.277,5.082 c0,0-0.91,2.232,0.91,3.047c0,0-0.81,1.729,1.227,2.652c0,0,0.189,3.361,6.911,1.221c0,0,1.02-0.512,1.739-2.037 c0,0,6.104,0.512,9.669,2.75c0,0-0.341,1.614-0.864,4.278l-0.125,0.024c-0.036,0.572-0.143,1.071-0.201,1.635 c-0.31,1.607-0.66,3.446-1.041,5.492c-0.216,0.716-0.38,1.535-0.648,2.162c-1.894,4.402-5.2,12.215-5.2,12.215 c-6.098,18.633-2.201,24.539,0.344,32.284c0.959,2.947-0.636,10.005-0.143,12.994c0.767,4.816,1.607,15.734,2.862,20.473 c3.285,12.287,6.683,20.788,6.683,20.788c-0.804,0.433-3.236,3.354-3.236,3.354c-1.946,3.489-7.462,3.636-7.462,3.636 c-5.188,2.326-2.107,3.483-2.107,3.483c1.939,0.883,11.191-0.281,11.191-0.281c2.601-1.893,10.711-0.876,10.711-0.876 c4.688,0.146,2.266-6.394,2.266-6.394c-0.962-3.775-4.025-14.961-2.606-19.777c1.389-4.665,1.486-9.969,0.986-13.25 c-0.591-3.849-5.054-13.969-5.054-13.969c-0.785-9.889,8.567-29.515,8.567-29.515c1.303,5.243,2.941,12.318,4.001,16.398 c3.599,13.913,9.693,17.769,9.693,17.769c-1.948,18.486-1.12,20.623,2.734,25.787c5.334,7.143,6.99,18.012,6.99,18.012 c-0.804,1.754-0.822,3.928-0.822,3.928c0.98,2.764,8.446,2.18,8.446,2.18c4.371,1.613,11.837,1.334,11.837,1.334 C162.987,196.192,156.502,194.609,156.502,194.609z"/> </g> </g>
</svg>